<?xml version="1.0" encoding="UTF-8"?>
<svg version="1.1" xmlns="http://www.w3.org/2000/svg" width="1024" height="1024">
<path d="M0 0 C337.92 0 675.84 0 1024 0 C1024 337.92 1024 675.84 1024 1024 C686.08 1024 348.16 1024 0 1024 C0 686.08 0 348.16 0 0 Z " fill="#FCFCF9" transform="translate(0,0)"/>
<path d="M0 0 C1.52152679 -0.00492462 1.52152679 -0.00492462 3.0737915 -0.00994873 C23.42348366 -0.03119351 43.47408085 1.18049414 63.25 6.3125 C64.91091542 6.56258102 66.57769588 6.78072149 68.25 6.9375 C69.013125 7.01226562 69.77625 7.08703125 70.5625 7.1640625 C71.3978125 7.23753906 71.3978125 7.23753906 72.25 7.3125 C72.25 7.9725 72.25 8.6325 72.25 9.3125 C73.01183594 9.34988281 73.77367187 9.38726562 74.55859375 9.42578125 C75.59113281 9.49152344 76.62367188 9.55726563 77.6875 9.625 C78.69683594 9.68300781 79.70617187 9.74101562 80.74609375 9.80078125 C85.14921322 10.44382322 89.06823273 11.83175004 93.25 13.3125 C94.8853741 13.85433586 96.52212992 14.39201699 98.16015625 14.92578125 C110.66399468 19.04198903 123.03965764 23.38673689 135.25 28.3125 C135.25 28.9725 135.25 29.6325 135.25 30.3125 C135.93320312 30.41175781 136.61640625 30.51101562 137.3203125 30.61328125 C140.84695267 31.4549727 143.90772641 32.87597642 147.125 34.5 C148.13929077 35.00926025 148.13929077 35.00926025 149.17407227 35.52880859 C176.5707172 49.6366042 202.32145493 67.71879554 224.2578125 89.35107422 C226.24053383 91.30318 228.24334924 93.2326895 230.25 95.16015625 C238.36698535 103.02911698 245.47262439 111.27599919 252.25 120.3125 C253.41425859 121.77275654 254.58064467 123.23132167 255.75 124.6875 C263.17949499 134.29277566 269.84038145 144.46884833 276.1875 154.8125 C276.63577148 155.54138428 277.08404297 156.27026855 277.54589844 157.02124023 C285.25 169.73300781 285.25 169.73300781 285.25 175.3125 C285.91 175.3125 286.57 175.3125 287.25 175.3125 C287.58 177.2925 287.91 179.2725 288.25 181.3125 C288.91 181.3125 289.57 181.3125 290.25 181.3125 C291.589018 184.30999714 292.92023339 187.31088915 294.25 190.3125 C295.0234375 192.045 295.0234375 192.045 295.8125 193.8125 C297.14682415 197.06128923 298.23813705 200.30035175 299.30859375 203.640625 C300.43859911 206.84777715 301.79005465 209.93510885 303.125 213.0625 C306.08842007 220.15794798 307.88518758 227.39990186 309.51318359 234.90332031 C310.35936873 238.76675568 311.23447782 242.27422839 312.7265625 245.953125 C315.23894188 252.38555163 315.98629552 259.32269726 316.9375 266.125 C317.04772491 266.90584961 317.15794983 267.68669922 317.27151489 268.49121094 C319.32790609 283.58387943 319.71611033 298.59501658 319.6875 313.8125 C319.68744965 314.87779938 319.68739929 315.94309875 319.68734741 317.04067993 C319.64106254 338.19123349 319.18091582 360.88642591 313.25 381.3125 C312.99944479 382.78510276 312.78137457 384.26444159 312.625 385.75 C312.50125 386.925625 312.3775 388.10125 312.25 389.3125 C311.59 389.3125 310.93 389.3125 310.25 389.3125 C310.22204346 389.89080566 310.19408691 390.46911133 310.1652832 391.06494141 C309.64448014 398.34469069 307.75905081 404.79447436 305.4375 411.6875 C304.92219727 413.25757813 304.92219727 413.25757813 304.39648438 414.859375 C303.70447329 416.96267323 303.00699054 419.06417936 302.30395508 421.16381836 C301.59138455 423.29261661 300.88566968 425.42372002 300.1862793 427.55688477 C298.52120988 432.6233804 296.825935 437.60912391 294.6875 442.5 C290.18688513 452.05480725 290.18688513 452.05480725 289.25 462.3125 C289.91 463.3025 290.57 464.2925 291.25 465.3125 C298.32014269 464.09344331 302.71460573 457.00305626 306.62573242 451.46313477 C307.09986572 450.77405029 307.57399902 450.08496582 308.0625 449.375 C308.56950439 448.64788818 309.07650879 447.92077637 309.59887695 447.17163086 C318.00852573 435.09607001 318.00852573 435.09607001 325.25 422.3125 C325.91 422.3125 326.57 422.3125 327.25 422.3125 C327.3325 421.61125 327.415 420.91 327.5 420.1875 C328.25045917 417.31073984 329.38675139 415.6728128 331.0859375 413.2890625 C333.14716336 409.78912866 334.36041611 405.93556812 335.7109375 402.1171875 C336.93329173 398.87416993 338.49657199 395.86880319 340.09765625 392.796875 C343.5486077 385.98283375 345.97307389 378.94277978 348.3125 371.6875 C348.74780862 370.35758801 349.18335791 369.02775476 349.61914062 367.69799805 C353.93985412 354.43939764 358.20859151 341.14532766 360.25 327.3125 C360.91 327.3125 361.57 327.3125 362.25 327.3125 C362.30607422 326.40757812 362.30607422 326.40757812 362.36328125 325.484375 C363.01625659 317.54624341 363.01625659 317.54624341 366.25 314.3125 C367.24 314.6425 368.23 314.9725 369.25 315.3125 C369.32546443 320.94601678 369.37920634 326.5792247 369.41479492 332.21313477 C369.4296668 334.1204136 369.44997049 336.02765963 369.47631836 337.93481445 C369.65270162 351.05288685 368.78172911 363.43678135 366.25 376.3125 C366.05472214 377.32765182 366.05472214 377.32765182 365.85549927 378.36331177 C365.02473766 382.65137226 364.11957121 386.92047325 363.1875 391.1875 C362.80368164 392.99927734 362.80368164 392.99927734 362.41210938 394.84765625 C361.32673261 399.87554552 360.20767242 404.55092597 358.25 409.3125 C357.74947253 411.27641702 357.25044316 413.24083894 356.77685547 415.21142578 C355.92693121 418.60088276 354.87106316 421.92088381 353.8125 425.25 C353.59078125 425.94947754 353.3690625 426.64895508 353.140625 427.36962891 C352.7044019 428.74303015 352.26711177 430.11609307 351.82861328 431.48876953 C351.35299061 432.98788404 350.8913456 434.49142619 350.43359375 435.99609375 C348.88353245 440.96514741 346.77874971 445.45385283 344.3359375 450.05078125 C343.32882358 452.14833146 342.71772717 454.04142476 342.25 456.3125 C341.59 456.3125 340.93 456.3125 340.25 456.3125 C339.67958984 458.19775391 339.67958984 458.19775391 339.09765625 460.12109375 C337.18596077 465.84053804 334.50697619 471.0567675 331.6875 476.375 C331.15447266 477.38578613 330.62144531 478.39657227 330.07226562 479.43798828 C316.04124463 505.75660484 298.20179084 530.34746445 277.59228516 551.88916016 C275.83581047 553.75170061 274.1630931 555.67898991 272.5 557.625 C266.30799596 564.78020466 259.43794836 571.17878407 252.25 577.3125 C251.19731352 578.22847395 250.14528457 579.14520388 249.09375 580.0625 C223.02193906 602.73204249 193.58348782 622.6481307 162.25 637.3125 C160.18199668 638.38567572 158.11469724 639.45925785 156.05566406 640.54956055 C154.25 641.3125 154.25 641.3125 151.25 641.3125 C151.25 641.9725 151.25 642.6325 151.25 643.3125 C148.94 643.6425 146.63 643.9725 144.25 644.3125 C144.25 644.9725 144.25 645.6325 144.25 646.3125 C143.46496094 646.56644531 142.67992187 646.82039062 141.87109375 647.08203125 C136.20417508 648.93855553 130.68906651 650.87047014 125.25 653.3125 C121.73872571 654.86399329 120.20785851 655.3125 116.25 655.3125 C116.25 655.9725 116.25 656.6325 116.25 657.3125 C112.21380847 658.46013816 108.17531782 659.59918045 104.13452148 660.73046875 C102.76146899 661.11615947 101.38906115 661.50415312 100.01733398 661.89453125 C98.04056919 662.45665805 96.06160079 663.0103431 94.08203125 663.5625 C92.89327393 663.89765625 91.7045166 664.2328125 90.47973633 664.578125 C87.59066138 665.23504067 85.19355028 665.46780686 82.25 665.3125 C82.25 665.9725 82.25 666.6325 82.25 667.3125 C70.40451007 669.81027104 58.46123067 671.42177567 46.46044922 672.95410156 C44.56963623 673.19725098 44.56963623 673.19725098 42.640625 673.4453125 C41.50657227 673.58855957 40.37251953 673.73180664 39.20410156 673.87939453 C36.39334981 674.23586439 36.39334981 674.23586439 34.26733398 674.83227539 C23.4271078 677.41278185 11.03305797 676.51734955 -0.0625 676.5 C-1.23644821 676.49859512 -1.23644821 676.49859512 -2.43411255 676.49716187 C-31.53959569 676.42227988 -60.79325991 673.88874887 -88.75 665.3125 C-90.44240035 664.83094753 -92.1351342 664.35056624 -93.828125 663.87109375 C-95.59429935 663.35343314 -97.35993069 662.83391605 -99.125 662.3125 C-99.96562988 662.07539307 -100.80625977 661.83828613 -101.67236328 661.59399414 C-102.83614502 661.23809204 -102.83614502 661.23809204 -104.0234375 660.875 C-105.06636963 660.56755859 -105.06636963 660.56755859 -106.13037109 660.25390625 C-107.75 659.3125 -107.75 659.3125 -108.54541016 657.27734375 C-108.6129248 656.62894531 -108.68043945 655.98054687 -108.75 655.3125 C-107.75 654.3125 -107.75 654.3125 -105.24334717 654.21916199 C-103.56586395 654.24059013 -103.56586395 654.24059013 -101.85449219 654.26245117 C-99.95289337 654.28193062 -99.95289337 654.28193062 -98.01287842 654.30180359 C-96.98548679 654.31528115 -96.98548679 654.31528115 -95.93733978 654.32903099 C-93.77017967 654.35579847 -91.60312459 654.37360263 -89.43585205 654.38850403 C-83.26889198 654.43101456 -77.10211707 654.47657679 -70.93554688 654.55932617 C-36.76926986 655.23033365 -36.76926986 655.23033365 -3.62445068 647.98429871 C-1.31407021 647.15626379 1.01326791 646.57031745 3.40625 646.03125 C4.72302734 645.72767578 4.72302734 645.72767578 6.06640625 645.41796875 C7.85546875 645.01432292 9.64453125 644.61067708 11.43359375 644.20703125 C20.76618455 642.05546479 29.46010609 638.89406994 38.33203125 635.30078125 C41.25 634.3125 41.25 634.3125 45.25 634.3125 C45.25 633.6525 45.25 632.9925 45.25 632.3125 C46.00023437 632.00957031 46.75046875 631.70664062 47.5234375 631.39453125 C53.47712337 628.95756915 59.28649056 626.39168342 64.99609375 623.42578125 C67.25 622.3125 67.25 622.3125 69.671875 621.38671875 C72.68523545 620.1311519 75.29565705 618.54577261 78.0625 616.8125 C78.61945557 616.46429199 79.17641113 616.11608398 79.75024414 615.75732422 C80.95383316 615.00464608 82.15652227 614.25052738 83.35839844 613.49511719 C85.28658419 612.2896278 87.22400841 611.10034372 89.1640625 609.9140625 C98.13739848 604.40615488 106.79625838 598.58838731 115.25 592.3125 C115.78689453 591.91595215 116.32378906 591.5194043 116.87695312 591.11083984 C129.47015813 581.7653964 141.34520777 571.61034657 152.17578125 560.26171875 C154.25 558.3125 154.25 558.3125 156.25 558.3125 C156.63478516 557.43271484 156.63478516 557.43271484 157.02734375 556.53515625 C158.36173896 554.10937071 159.79485328 552.63721299 161.8125 550.75 C166.73565027 545.94195936 170.97658241 540.69742039 175.25 535.3125 C176.14958037 534.19258042 177.04932546 533.07279315 177.94921875 531.953125 C190.7182974 515.98562157 202.41908157 498.80802496 211.25 480.3125 C211.91 480.3125 212.57 480.3125 213.25 480.3125 C213.4046875 478.9821875 213.4046875 478.9821875 213.5625 477.625 C214.28020309 474.166976 215.4079722 472.28808336 217.25 469.3125 C217.97818546 467.42583767 218.70130005 465.53683182 219.3828125 463.6328125 C220.33433088 461.08685791 221.41395658 458.61651137 222.5 456.125 C227.52840798 444.13300885 231.75569312 431.56267919 234.64453125 418.8828125 C235.11604474 416.88116167 235.66101954 414.89676602 236.234375 412.921875 C242.95698876 389.03073995 243.83593077 363.95088889 243.25 339.3125 C243.23453125 338.37535156 243.2190625 337.43820312 243.203125 336.47265625 C242.96677428 323.37488701 241.02245452 310.77622024 238.69140625 297.90039062 C238.09112959 294.38106952 237.65343671 290.85938103 237.25 287.3125 C236.59 287.3125 235.93 287.3125 235.25 287.3125 C235.11948242 286.723479 234.98896484 286.13445801 234.85449219 285.52758789 C234.24600786 282.80779081 233.62309716 280.09148499 233 277.375 C232.79503906 276.44880859 232.59007812 275.52261719 232.37890625 274.56835938 C231.12934441 269.17252415 229.5369853 264.29926534 227.17382812 259.28979492 C225.97839781 256.73118231 225.06176882 254.10028381 224.125 251.4375 C210.70047111 216.06823037 184.96498276 183.40575958 155.25 160.3125 C154.30382812 159.57257813 153.35765625 158.83265625 152.3828125 158.0703125 C144.9391626 152.36417239 137.19813764 147.2724687 129.25 142.3125 C128.64349609 141.93109863 128.03699219 141.54969727 127.41210938 141.15673828 C120.61692083 136.65365719 120.61692083 136.65365719 113.25 133.3125 C113.25 132.6525 113.25 131.9925 113.25 131.3125 C111.97189453 131.1578125 111.97189453 131.1578125 110.66796875 131 C106.93404682 130.24894827 103.98718118 128.96716594 100.5625 127.3125 C95.98719083 125.11239178 95.98719083 125.11239178 91.25 123.3125 C91.25 122.6525 91.25 121.9925 91.25 121.3125 C90.07824219 121.20679688 88.90648437 121.10109375 87.69921875 120.9921875 C83.4743332 120.46279978 79.97338629 119.15197796 76.0625 117.4375 C66.36821804 113.35544161 56.48684778 111.3756958 46.1015625 109.83984375 C43.25 109.3125 43.25 109.3125 39.89453125 108.32421875 C5.2846774 98.716553 -39.55237013 104.73723276 -72.32446289 117.54516602 C-74.75 118.3125 -74.75 118.3125 -78.75 118.3125 C-78.75 118.9725 -78.75 119.6325 -78.75 120.3125 C-82.36973402 121.62876692 -84.84567131 122.3125 -88.75 122.3125 C-88.75 122.9725 -88.75 123.6325 -88.75 124.3125 C-90.60431641 124.84037109 -90.60431641 124.84037109 -92.49609375 125.37890625 C-98.76347873 127.47619683 -104.19391196 130.82009295 -109.8125 134.25 C-110.91287598 134.91660645 -112.01325195 135.58321289 -113.14697266 136.27001953 C-122.1139168 141.77470137 -130.55267989 147.72808411 -138.75 154.3125 C-139.80577828 155.14479936 -140.86175948 155.9768414 -141.91796875 156.80859375 C-147.19037383 161.02794086 -152.08994815 165.42936056 -156.75 170.3125 C-161.75 175.3125 -161.75 175.3125 -163.671875 177.12890625 C-170.44373258 183.64862019 -176.11785253 190.81581956 -181.75 198.3125 C-182.16894531 198.86534668 -182.58789062 199.41819336 -183.01953125 199.98779297 C-193.55819981 213.97662088 -203.0496407 229.101228 -209.75 245.3125 C-210.29527344 246.62927734 -210.29527344 246.62927734 -210.8515625 247.97265625 C-211.49747521 249.56771549 -212.13360737 251.16680275 -212.75585938 252.77124023 C-213.39093574 254.39464639 -214.03865436 256.0132007 -214.70263672 257.625 C-224.74103645 282.02618755 -228.41820215 307.09284194 -228.75 333.3125 C-228.7806958 334.97998291 -228.7806958 334.97998291 -228.81201172 336.68115234 C-229.18216273 357.74305088 -228.53834357 378.18705789 -221.75 398.3125 C-221.26411629 399.93550423 -220.78461493 401.56043725 -220.3125 403.1875 C-218.97743899 407.64210949 -217.48734434 411.99858566 -215.75 416.3125 C-215.36328125 417.29476563 -214.9765625 418.27703125 -214.578125 419.2890625 C-206.29561935 439.53001731 -194.79099566 458.40873212 -179.75 474.3125 C-178.59914139 475.66239846 -177.45308069 477.01640621 -176.3125 478.375 C-169.38465272 486.26989233 -161.39600609 492.49460394 -152.71875 498.3125 C-150.44587327 499.84370117 -148.2480478 501.41302996 -146.0625 503.0625 C-142.65502784 505.51689207 -138.9762679 507.31486059 -135.19921875 509.1328125 C-133.75124323 509.8302425 -132.31180834 510.54681722 -130.89453125 511.3046875 C-120.95809796 516.61289248 -109.97156565 520.30492734 -99.0078125 522.76953125 C-96.75 523.3125 -96.75 523.3125 -94.75 524.3125 C-78.8976979 527.78526178 -62.97785653 528.70946272 -46.8125 528.6875 C-46.00856812 528.68904083 -45.20463623 528.69058167 -44.37634277 528.69216919 C-34.64869198 528.69005675 -25.33534199 528.13742821 -15.75 526.3125 C-14.87496826 526.15604004 -13.99993652 525.99958008 -13.09838867 525.83837891 C-10.66444077 525.39497885 -8.23823764 524.92368724 -5.8125 524.4375 C-4.9656665 524.26895508 -4.11883301 524.10041016 -3.24633789 523.92675781 C3.14770491 522.61856942 9.36005246 520.97526618 15.59765625 519.046875 C18.25 518.3125 18.25 518.3125 21.25 518.3125 C21.25 517.6525 21.25 516.9925 21.25 516.3125 C21.77464844 516.12816406 22.29929687 515.94382812 22.83984375 515.75390625 C42.69312292 508.32131421 59.5650777 496.35269843 75.25 482.3125 C76.10078125 481.55839844 76.9515625 480.80429687 77.828125 480.02734375 C96.78745938 462.19945352 109.9048779 437.07605451 117.25 412.3125 C117.58902344 411.20132812 117.92804688 410.09015625 118.27734375 408.9453125 C120.13045341 402.70672981 121.61546107 396.78479713 122.25 390.3125 C122.58 389.9825 122.91 389.6525 123.25 389.3125 C123.38876745 386.68778538 123.46327269 384.091493 123.48828125 381.46484375 C123.496353 380.66075577 123.50442474 379.85666779 123.51274109 379.0282135 C123.52661751 377.31236948 123.53732363 375.59649744 123.54516602 373.88061523 C123.5565456 372.15364294 123.57676683 370.42670172 123.60668945 368.69995117 C123.87584487 353.16562394 121.18944806 340.26463415 115.984375 325.5703125 C115.25 323.3125 115.25 323.3125 115.25 321.3125 C114.59 321.3125 113.93 321.3125 113.25 321.3125 C112.816875 319.7346875 112.816875 319.7346875 112.375 318.125 C105.15464926 298.91614236 85.82916469 286.05578332 68.10546875 277.9140625 C65.18120723 276.63127982 62.43386975 275.75036028 59.25 275.3125 C59.25 274.6525 59.25 273.9925 59.25 273.3125 C55.09150485 273.23703875 50.93339662 273.18329655 46.77441406 273.14770508 C45.36646565 273.13283238 43.9585617 273.11252781 42.55078125 273.08618164 C26.68663739 272.79722759 13.04991803 275.58137472 -0.8125 283.625 C-3.75 285.3125 -3.75 285.3125 -5.75 285.3125 C-5.75 285.9725 -5.75 286.6325 -5.75 287.3125 C-7.07 287.6425 -8.39 287.9725 -9.75 288.3125 C-9.75 288.9725 -9.75 289.6325 -9.75 290.3125 C-10.87525155 291.33899277 -12.05282645 292.30837696 -13.25 293.25 C-23.91328106 302.28443174 -31.61938731 315.48740332 -32.95849609 329.49316406 C-33.07430885 331.72830146 -33.12228272 333.94945192 -33.125 336.1875 C-33.12729614 337.22052246 -33.12729614 337.22052246 -33.12963867 338.27441406 C-32.8652652 350.5567036 -27.77766415 362.09994078 -19.75 371.3125 C-16.28905451 374.36019827 -12.68317828 376.91113054 -8.75 379.3125 C-8.12738281 379.69535156 -7.50476563 380.07820313 -6.86328125 380.47265625 C-2.24551802 382.70371039 2.77644924 382.64241507 7.8125 382.75 C8.53324707 382.77255859 9.25399414 382.79511719 9.99658203 382.81835938 C15.43610728 382.79344742 18.80456774 381.35356656 23.25 378.3125 C24.90902344 377.23548828 24.90902344 377.23548828 26.6015625 376.13671875 C28.79347667 374.70595854 30.9809585 373.26838613 33.1640625 371.82421875 C36.25 370.3125 36.25 370.3125 39.0859375 370.51953125 C41.25 371.3125 41.25 371.3125 42.25 372.3125 C44.16847254 391.20614684 39.65294227 405.81922934 28.1875 420.8125 C17.17745846 433.82603825 2.51297188 441.69497763 -13.75 446.3125 C-14.9565625 446.72822266 -14.9565625 446.72822266 -16.1875 447.15234375 C-37.17280196 453.62082461 -62.83003985 449.42249497 -82.04248047 439.50854492 C-108.97853864 425.03066117 -127.65235424 399.52623982 -136.91796875 370.67578125 C-139.94033292 359.36395071 -140.13148081 348.12786083 -140.125 336.5 C-140.12672211 335.70776031 -140.12844421 334.91552063 -140.13021851 334.09927368 C-140.12688674 320.52865138 -139.12524121 307.41086532 -135.0625 294.375 C-134.80194824 293.52728027 -134.54139648 292.67956055 -134.27294922 291.80615234 C-127.34119146 270.00008333 -114.96622161 249.49923786 -99.23046875 232.96875 C-96.74237747 230.37323531 -96.74237747 230.37323531 -94.63671875 227.6640625 C-91.7366397 224.04947121 -88.31243586 221.25900068 -84.75 218.3125 C-83.73679687 217.47332031 -82.72359375 216.63414062 -81.6796875 215.76953125 C-75.40547669 210.66467146 -68.95557473 205.96141322 -62.125 201.625 C-61.45017578 201.19082764 -60.77535156 200.75665527 -60.08007812 200.30932617 C-56.61341127 198.16281443 -54.92562356 197.3125 -50.75 197.3125 C-50.75 196.6525 -50.75 195.9925 -50.75 195.3125 C-48.77 194.9825 -46.79 194.6525 -44.75 194.3125 C-44.75 193.6525 -44.75 192.9925 -44.75 192.3125 C-44.06035156 192.14234375 -43.37070312 191.9721875 -42.66015625 191.796875 C-38.08265084 190.61639349 -33.71158195 189.41526931 -29.4375 187.375 C-14.69264869 180.51692962 0.31832914 180.12560892 16.22875977 180.12719727 C18.67937516 180.12500726 21.12954167 180.10677675 23.58007812 180.08789062 C32.33492091 180.05767518 40.65110968 180.43392079 49.25 182.3125 C49.25 182.9725 49.25 183.6325 49.25 184.3125 C49.83265625 184.34988281 50.4153125 184.38726562 51.015625 184.42578125 C63.77039297 185.44856925 76.10707078 188.98274323 87.453125 194.8671875 C89.49136219 195.9204665 91.5459039 196.94236957 93.609375 197.9453125 C120.43485136 211.00662522 143.9304174 230.51301291 159.25 256.3125 C159.90613281 257.33988281 160.56226563 258.36726563 161.23828125 259.42578125 C168.11335603 270.23686871 173.00313289 281.17056717 177.125 293.25 C177.59111694 294.60061523 177.59111694 294.60061523 178.06665039 295.97851562 C179.58028197 300.55837514 180.65288791 304.42144073 180.25 309.3125 C180.91 309.3125 181.57 309.3125 182.25 309.3125 C182.44335938 310.57964844 182.63671875 311.84679687 182.8359375 313.15234375 C183.09880377 314.85158642 183.36183336 316.55080383 183.625 318.25 C183.81449219 319.49620117 183.81449219 319.49620117 184.0078125 320.76757812 C184.13671875 321.59580078 184.265625 322.42402344 184.3984375 323.27734375 C184.51364746 324.0262085 184.62885742 324.77507324 184.74755859 325.54663086 C185.03479708 327.12783827 185.34864299 328.70590963 185.73950195 330.26473999 C187.19761468 336.15745762 187.54240367 341.67719963 187.515625 347.734375 C187.51849518 349.20538666 187.51849518 349.20538666 187.52142334 350.70611572 C187.52277795 352.77689878 187.51913239 354.84769053 187.51074219 356.91845703 C187.50017169 360.01225056 187.51059001 363.10544472 187.5234375 366.19921875 C187.53806098 383.82404105 186.82926659 401.30570541 182.375 418.4375 C182.00955078 419.94570313 182.00955078 419.94570313 181.63671875 421.484375 C180.15088837 427.44309372 178.31748167 433.17796621 176.14331055 438.92089844 C175.33775448 441.07756071 174.6182952 443.23892696 173.9375 445.4375 C159.76076096 487.96771712 131.54694029 527.72160927 96.25 555.3125 C95.09177734 556.2715625 95.09177734 556.2715625 93.91015625 557.25 C86.97435438 562.97405612 79.58794165 567.9866383 72.13916016 573.00927734 C70.29168097 574.2837467 68.49823835 575.61541501 66.69921875 576.95703125 C63.41504288 579.32022812 60.00828282 580.79834166 56.25 582.3125 C53.15739547 583.80642019 50.11112113 585.39303881 47.06054688 586.97070312 C42.46183702 589.3125 42.46183702 589.3125 40.25 589.3125 C40.25 589.9725 40.25 590.6325 40.25 591.3125 C37.94 591.6425 35.63 591.9725 33.25 592.3125 C33.25 592.9725 33.25 593.6325 33.25 594.3125 C30.94 594.6425 28.63 594.9725 26.25 595.3125 C26.25 595.9725 26.25 596.6325 26.25 597.3125 C25.1878125 597.63863281 24.125625 597.96476563 23.03125 598.30078125 C21.60412798 598.7420624 20.17704683 599.18347576 18.75 599.625 C18.05390625 599.83833984 17.3578125 600.05167969 16.640625 600.27148438 C13.14145454 601.35687521 9.69725488 602.50264394 6.28125 603.828125 C2.013275 605.45584019 -2.32642576 606.62589819 -6.75 607.75 C-7.58539307 607.96317871 -8.42078613 608.17635742 -9.28149414 608.39599609 C-10.98056014 608.82953191 -12.67985752 609.26216198 -14.37939453 609.69384766 C-16.44850519 610.23381948 -18.50494538 610.82188414 -20.55859375 611.41796875 C-60.81240584 622.72716677 -112.38093405 620.73497349 -151.75 607.3125 C-153.04223781 606.93438758 -154.33670394 606.56384208 -155.6328125 606.19921875 C-164.2820261 603.76180539 -172.53375004 600.99564654 -180.75 597.3125 C-181.80767578 596.87357422 -181.80767578 596.87357422 -182.88671875 596.42578125 C-206.37341219 586.53900173 -227.66617265 572.04985283 -246.75 555.3125 C-247.67039062 554.51585937 -248.59078125 553.71921875 -249.5390625 552.8984375 C-254.01355475 548.96466939 -258.14549728 544.94704996 -261.984375 540.390625 C-263.95052556 538.07648319 -266.00347972 535.8568052 -268.0625 533.625 C-275.95679059 524.83726774 -282.79621423 515.41577544 -289.375 505.625 C-290.17514526 504.43874023 -290.17514526 504.43874023 -290.99145508 503.22851562 C-291.48154053 502.48923828 -291.97162598 501.74996094 -292.4765625 500.98828125 C-292.91564941 500.32739502 -293.35473633 499.66650879 -293.80712891 498.9855957 C-294.75 497.3125 -294.75 497.3125 -294.75 495.3125 C-295.41 495.3125 -296.07 495.3125 -296.75 495.3125 C-297.06751221 494.64718262 -297.38502441 493.98186523 -297.7121582 493.29638672 C-299.16170504 490.25982006 -300.61209496 487.22365683 -302.0625 484.1875 C-302.56201172 483.14078125 -303.06152344 482.0940625 -303.57617188 481.015625 C-305.52787348 476.93126933 -307.47854925 472.85119762 -309.515625 468.80859375 C-310.54849682 466.71997004 -311.41775343 464.69449487 -312.1875 462.5 C-313.22630748 459.63245851 -314.3929485 456.88603562 -315.6875 454.125 C-318.27643289 448.35874037 -320.00503544 442.3783292 -321.75 436.3125 C-321.9473877 435.62978027 -322.14477539 434.94706055 -322.34814453 434.24365234 C-326.52196712 419.74459547 -330.19191223 405.17878991 -332.79931641 390.31201172 C-333.42468162 386.70448488 -333.42468162 386.70448488 -334.75 383.3125 C-337.60929847 370.04912152 -337.05407713 356.33696161 -337.01074219 342.85229492 C-337.00003431 338.88770213 -337.01067624 334.92356331 -337.0234375 330.95898438 C-337.03247371 315.81560673 -336.80649027 301.18343995 -333.21435547 286.40136719 C-332.30122078 282.29370135 -331.85476128 278.10713179 -331.3125 273.9375 C-330.29264546 266.51108126 -328.9487529 259.48532057 -326.75 252.3125 C-326.35872055 250.8788411 -325.97246653 249.44380597 -325.58984375 248.0078125 C-321.71195268 233.50780664 -321.71195268 233.50780664 -318.7421875 226.6484375 C-316.78307708 222.03604368 -315.1064239 217.31343084 -313.42578125 212.59375 C-309.90753654 202.75765806 -305.64343112 193.53421089 -300.75 184.3125 C-300.28223145 183.42626953 -299.81446289 182.54003906 -299.33251953 181.62695312 C-297.79472004 178.72469708 -296.24380784 175.82986968 -294.6875 172.9375 C-294.20522949 172.03435059 -293.72295898 171.13120117 -293.22607422 170.20068359 C-289.8048147 163.91511378 -285.92763583 158.11656297 -281.75 152.3125 C-280.98997055 151.20642235 -280.23400807 150.09752493 -279.484375 148.984375 C-272.03293575 138.01257076 -264.02146281 127.53947745 -255.015625 117.7890625 C-253.15918799 115.7597848 -251.36016871 113.70113648 -249.56640625 111.6171875 C-245.38197738 106.82297312 -240.93395314 102.31261773 -236.4375 97.8125 C-235.62732422 96.99007812 -234.81714844 96.16765625 -233.98242188 95.3203125 C-232.82129883 94.15628906 -232.82129883 94.15628906 -231.63671875 92.96875 C-230.93764404 92.26556641 -230.23856934 91.56238281 -229.51831055 90.83789062 C-227.75 89.3125 -227.75 89.3125 -225.75 89.3125 C-225.75 88.6525 -225.75 87.9925 -225.75 87.3125 C-223.87109375 85.5703125 -223.87109375 85.5703125 -221.1875 83.4375 C-220.17945313 82.633125 -219.17140625 81.82875 -218.1328125 81 C-217.58399414 80.56558594 -217.03517578 80.13117188 -216.46972656 79.68359375 C-214.71397759 78.28378026 -212.97679001 76.86341016 -211.2421875 75.4375 C-196.30979188 63.21789649 -180.39006078 53.04391738 -163.75 43.3125 C-163.05503418 42.90306152 -162.36006836 42.49362305 -161.64404297 42.07177734 C-143.36283326 31.3125 -143.36283326 31.3125 -136.75 31.3125 C-136.75 30.6525 -136.75 29.9925 -136.75 29.3125 C-128.06230447 25.64802179 -119.42791532 22.06666511 -110.43359375 19.2109375 C-107.84486147 18.34425857 -105.38077614 17.33028599 -102.875 16.25 C-97.80791972 14.16641659 -92.66581653 13.1544465 -87.3046875 12.09375 C-83.95608641 11.35779372 -80.80992898 10.40323951 -77.5625 9.3125 C-65.47389842 5.4641238 -52.58046557 4.27794762 -40.00488281 2.95849609 C-36.25622104 2.59182601 -36.25622104 2.59182601 -32.75 1.3125 C-22.04208663 -0.46788273 -10.82032344 0.02857729 0 0 Z " fill="#020202" transform="translate(503.75,167.6875)"/>
<path d="M0 0 C0.33 0.99 0.66 1.98 1 3 C-2.18073424 6.20557477 -5.36483158 9.40775791 -8.55200195 12.60693359 C-9.63429843 13.69423846 -10.71569313 14.78244176 -11.79614258 15.87158203 C-13.35518199 17.44284075 -14.9175063 19.0107697 -16.48046875 20.578125 C-16.95775925 21.06057678 -17.43504974 21.54302856 -17.92680359 22.0401001 C-20.80073451 24.91450281 -23.7812263 27.51891512 -27 30 C-27.66 29.67 -28.32 29.34 -29 29 C-28.58339111 28.6189209 -28.16678223 28.2378418 -27.73754883 27.84521484 C-18.0388773 18.94312967 -8.80621444 9.78635818 0 0 Z " fill="#D6D6D4" transform="translate(786,714)"/>
<path d="M0 0 C1.0859375 3.765625 1.0859375 3.765625 0.3125 5.875 C-4.23076923 13.23076923 -4.23076923 13.23076923 -7 16 C-8.53350261 17.96288334 -9.88515078 19.77030156 -11 22 C-13.0625 22.625 -13.0625 22.625 -15 23 C-13.5602078 19.95031357 -11.87380727 17.22866153 -9.9609375 14.453125 C-9.38085938 13.60878906 -8.80078125 12.76445313 -8.203125 11.89453125 C-7.59984375 11.02183594 -6.9965625 10.14914062 -6.375 9.25 C-5.76398437 8.36183594 -5.15296875 7.47367188 -4.5234375 6.55859375 C-3.01787861 4.37082849 -1.50999691 2.1847034 0 0 Z " fill="#D7D6D4" transform="translate(820,669)"/>
<path d="M0 0 C0.72265625 1.671875 0.72265625 1.671875 1 4 C-0.44140625 6.515625 -0.44140625 6.515625 -2.5625 9.25 C-3.29855469 10.21035156 -4.03460937 11.17070313 -4.79296875 12.16015625 C-5.52128906 13.09730469 -6.24960937 14.03445313 -7 15 C-8.59435321 17.20996031 -10.184923 19.42256027 -11.7734375 21.63671875 C-12.17820312 22.08660156 -12.58296875 22.53648437 -13 23 C-13.66 23 -14.32 23 -15 23 C-15 23.66 -15 24.32 -15 25 C-15.66 24.67 -16.32 24.34 -17 24 C-16.62713867 23.48614746 -16.25427734 22.97229492 -15.87011719 22.44287109 C-14.16223022 20.08776811 -12.45610333 17.73139539 -10.75 15.375 C-10.16347656 14.56675781 -9.57695313 13.75851562 -8.97265625 12.92578125 C-5.89352866 8.67035773 -2.87418661 4.3966518 0 0 Z " fill="#CCCBCA" transform="translate(654,661)"/>
<path d="M0 0 C4.51617599 -0.07654536 8.59085217 -0.10228696 13 1 C10.55335827 3.44664173 9.58948215 3.347875 6.2109375 3.6328125 C5.26992188 3.71660156 4.32890625 3.80039063 3.359375 3.88671875 C2.37453125 3.96535156 1.3896875 4.04398438 0.375 4.125 C-0.61757813 4.21136719 -1.61015625 4.29773438 -2.6328125 4.38671875 C-5.08797111 4.5991844 -7.54353974 4.80325544 -10 5 C-9.67 4.34 -9.34 3.68 -9 3 C-6.36 3 -3.72 3 -1 3 C-0.67 2.01 -0.34 1.02 0 0 Z " fill="#BFBFBE" transform="translate(458,168)"/>
<path d="M0 0 C3.63 0.33 7.26 0.66 11 1 C11.33 1.99 11.66 2.98 12 4 C16.95 3.67 21.9 3.34 27 3 C26.67 3.66 26.34 4.32 26 5 C8.14350797 5.738041 8.14350797 5.738041 0 1 C0 0.67 0 0.34 0 0 Z " fill="#9C9D9A" transform="translate(494,546)"/>
<path d="M0 0 C1.34600486 4.85776189 0.33065622 7.6128824 -2 12 C-2.309375 12.680625 -2.61875 13.36125 -2.9375 14.0625 C-4.05647025 16.10297517 -5.33281188 17.39641033 -7 19 C-5.17778624 12.38757278 -2.94776396 6.19479329 0 0 Z " fill="#B4B4B2" transform="translate(676,616)"/>
<path d="M0 0 C1 2 1 2 0.0625 5.125 C-0.288125 6.07375 -0.63875 7.0225 -1 8 C-0.34 8.33 0.32 8.66 1 9 C-0.32 9.33 -1.64 9.66 -3 10 C-3.33 11.98 -3.66 13.96 -4 16 C-3.34 16.33 -2.68 16.66 -2 17 C-3.65 17.99 -5.3 18.98 -7 20 C-5.27068234 12.99102311 -3.16032658 6.49711809 0 0 Z " fill="#BABAB8" transform="translate(803,596)"/>
<path d="M0 0 C4.62 0 9.24 0 14 0 C14.33 0.99 14.66 1.98 15 3 C17.31 3.33 19.62 3.66 22 4 C18.42355152 5.2380014 15.66305234 4.74926071 12 4 C12 3.34 12 2.68 12 2 C11.38511719 2.02320313 10.77023437 2.04640625 10.13671875 2.0703125 C8.92435547 2.09738281 8.92435547 2.09738281 7.6875 2.125 C6.88699219 2.14820313 6.08648438 2.17140625 5.26171875 2.1953125 C3 2 3 2 0 0 Z " fill="#BCBCBA" transform="translate(564,173)"/>
<path d="M0 0 C1.37432457 3.81756824 0.67975039 7.07255329 0 11 C-0.99 11.33 -1.98 11.66 -3 12 C-3.12375 13.299375 -3.2475 14.59875 -3.375 15.9375 C-3.5859375 18.15234375 -3.5859375 18.15234375 -4 20 C-4.66 20.33 -5.32 20.66 -6 21 C-4.89933327 14.68087806 -3.40062027 8.94936329 -1 3 C-0.67 2.01 -0.34 1.02 0 0 Z " fill="#B5B4B3" transform="translate(683,595)"/>
<path d="M0 0 C-0.33 0.99 -0.66 1.98 -1 3 C-1.99 3 -2.98 3 -4 3 C-4 2.34 -4 1.68 -4 1 C-5.85625 1.5259375 -5.85625 1.5259375 -7.75 2.0625 C-10.903292 2.95593273 -12.86774164 3.00881294 -16 2 C-14.08654673 1.46748234 -12.1690705 0.94940517 -10.25 0.4375 C-9.18265625 0.14746094 -8.1153125 -0.14257812 -7.015625 -0.44140625 C-4.15664073 -0.97098494 -2.68402617 -0.98370862 0 0 Z " fill="#B1B1AF" transform="translate(495,777)"/>
<path d="M0 0 C0.9395358 2.53674666 1.07582782 3.75987856 0.25 6.375 C-1.12876117 9.27039846 -2.53931086 12.14501668 -4 15 C-4.66 15 -5.32 15 -6 15 C-4.36041242 9.76727367 -2.61047965 4.84803364 0 0 Z " fill="#B0B0AE" transform="translate(844,624)"/>
<path d="M0 0 C0.66 0.66 1.32 1.32 2 2 C1.8125 5 1.8125 5 1 8 C0.01 8.66 -0.98 9.32 -2 10 C-3.19232613 12.05003955 -3.19232613 12.05003955 -4 14 C-4.33 13.34 -4.66 12.68 -5 12 C-4.26821134 9.92803369 -3.44100997 7.8891448 -2.5625 5.875 C-2.08941406 4.77929688 -1.61632812 3.68359375 -1.12890625 2.5546875 C-0.75636719 1.71164062 -0.38382813 0.86859375 0 0 Z " fill="#CECDCC" transform="translate(857,593)"/>
<path d="M0 0 C0 3 0 3 -2.1875 5.48046875 C-3.115625 6.37378906 -4.04375 7.26710938 -5 8.1875 C-5.928125 9.08855469 -6.85625 9.98960937 -7.8125 10.91796875 C-8.534375 11.60503906 -9.25625 12.29210937 -10 13 C-10.66 12.67 -11.32 12.34 -12 12 C-8.27653164 7.57905197 -4.70478962 3.42166518 0 0 Z " fill="#DADAD8" transform="translate(350,334)"/>
<path d="M0 0 C0.92381059 3.45683961 1.29974222 6.4030933 1 10 C-0.375 12.1875 -0.375 12.1875 -2 14 C-2.66 14.99 -3.32 15.98 -4 17 C-3.35729017 11.0870696 -1.80996216 5.65755469 0 0 Z " fill="#A6A6A5" transform="translate(865,564)"/>
<path d="M0 0 C-1.13499394 3.29148243 -1.99283376 3.9959869 -5.125 5.75 C-6.548125 6.36875 -6.548125 6.36875 -8 7 C-8.66 6.34 -9.32 5.68 -10 5 C-8.71186658 4.16121545 -7.41936744 3.32913217 -6.125 2.5 C-5.40570312 2.0359375 -4.68640625 1.571875 -3.9453125 1.09375 C-2 0 -2 0 0 0 Z " fill="#C2C1C0" transform="translate(702,785)"/>
<path d="M0 0 C0 3 0 3 -1.53125 4.82421875 C-2.1809375 5.43910156 -2.830625 6.05398438 -3.5 6.6875 C-4.1496875 7.31011719 -4.799375 7.93273437 -5.46875 8.57421875 C-5.9740625 9.04472656 -6.479375 9.51523437 -7 10 C-7.99 9.67 -8.98 9.34 -10 9 C-6.7 6.03 -3.4 3.06 0 0 Z " fill="#C8C8C5" transform="translate(752,747)"/>
<path d="M0 0 C-1.47692308 4.67692308 -1.47692308 4.67692308 -4.125 6.3125 C-5.053125 6.6528125 -5.053125 6.6528125 -6 7 C-6 6.34 -6 5.68 -6 5 C-6.66 4.67 -7.32 4.34 -8 4 C-2.25 0 -2.25 0 0 0 Z " fill="#CECECC" transform="translate(692,791)"/>
<path d="M0 0 C-1.14453125 1.51953125 -1.14453125 1.51953125 -3 3 C-5.69921875 3.07421875 -5.69921875 3.07421875 -8.6875 2.6875 C-10.17830078 2.50767578 -10.17830078 2.50767578 -11.69921875 2.32421875 C-12.45847656 2.21722656 -13.21773438 2.11023438 -14 2 C-14 1.67 -14 1.34 -14 1 C-9.23692563 0.04738513 -4.8333472 -0.08333357 0 0 Z " fill="#B9B9B8" transform="translate(457,783)"/>
<path d="M0 0 C0.66 0.99 1.32 1.98 2 3 C1.01 3.33 0.02 3.66 -1 4 C-1 5.65 -1 7.3 -1 9 C-2.98 9.99 -2.98 9.99 -5 11 C-3.77472971 6.94718288 -2.30119506 3.55639236 0 0 Z " fill="#BAB9B7" transform="translate(302,395)"/>
<path d="M0 0 C7.75 -0.125 7.75 -0.125 10 1 C10.625 3.0625 10.625 3.0625 11 5 C7.27566618 3.7874262 3.62197194 2.49140021 0 1 C0 0.67 0 0.34 0 0 Z " fill="#C2C2BF" transform="translate(639,197)"/>
<path d="M0 0 C-2.125 2.5625 -2.125 2.5625 -5 5 C-8.3125 4.8125 -8.3125 4.8125 -11 4 C-9.71264403 1.42528807 -8.71510189 1.29583343 -6.0625 0.3125 C-5.35222656 0.04050781 -4.64195312 -0.23148438 -3.91015625 -0.51171875 C-2 -1 -2 -1 0 0 Z " fill="#B1B1AF" transform="translate(646,815)"/>
<path d="M0 0 C1 3 1 3 0.3125 5.125 C-1 7 -1 7 -3.125 7.75 C-4.053125 7.87375 -4.053125 7.87375 -5 8 C-3.62845496 5.04590299 -2.01136276 2.55991624 0 0 Z " fill="#CFCFCD" transform="translate(810,684)"/>
<path d="M0 0 C0.66 0.99 1.32 1.98 2 3 C0.7260411 5.03833424 -0.61061923 7.03852126 -2 9 C-2.66 9 -3.32 9 -4 9 C-2.94124926 5.59687262 -1.99097846 2.98646769 0 0 Z " fill="#C6C6C4" transform="translate(834,645)"/>
<path d="M0 0 C0.66 0.99 1.32 1.98 2 3 C1.71125 3.556875 1.4225 4.11375 1.125 4.6875 C-0.0413253 7.08494645 -1.0339881 9.51596939 -2 12 C-3.12377697 8.69564916 -2.89554742 6.9493138 -1.5625 3.75 C-1.27503906 3.04359375 -0.98757813 2.3371875 -0.69140625 1.609375 C-0.46324219 1.07828125 -0.23507812 0.5471875 0 0 Z " fill="#B5B5B3" transform="translate(810,574)"/>
<path d="M0 0 C3.74787912 0.50452219 7.32636934 1.08159233 11 2 C6.71 2.66 2.42 3.32 -2 4 C-1.34 2.68 -0.68 1.36 0 0 Z " fill="#D6D5D2" transform="translate(433,172)"/>
<path d="M0 0 C0.66 0.33 1.32 0.66 2 1 C-1.17320782 4.53586014 -3.16743695 6.58578031 -8 7 C-5.4837822 4.39391727 -2.94865641 2.10618315 0 0 Z " fill="#C0C0BD" transform="translate(585,733)"/>
<path d="M0 0 C1.35439668 2.70879335 1.06501451 5.00933268 1 8 C-0.32 7.67 -1.64 7.34 -3 7 C-1.125 1.125 -1.125 1.125 0 0 Z " fill="#C8C7C5" transform="translate(661,649)"/>
<path d="M0 0 C-3.20380017 2.13586678 -4.01939967 2.23132175 -7.6875 2.125 C-8.89986328 2.09792969 -8.89986328 2.09792969 -10.13671875 2.0703125 C-11.05904297 2.03550781 -11.05904297 2.03550781 -12 2 C-12 1.67 -12 1.34 -12 1 C-3.96428571 -1.27678571 -3.96428571 -1.27678571 0 0 Z " fill="#B4B4B3" transform="translate(598,832)"/>
<path d="M0 0 C0.33 1.32 0.66 2.64 1 4 C-0.9375 6.25 -0.9375 6.25 -3 8 C-3.66 7.67 -4.32 7.34 -5 7 C-3.35 4.69 -1.7 2.38 0 0 Z " fill="#BFBFBD" transform="translate(802,694)"/>
<path d="M0 0 C1.36207958 2.72415916 0.86166193 4.12779357 0 7 C-0.99 7.66 -1.98 8.32 -3 9 C-2.44271087 5.65626525 -1.64826111 2.96687001 0 0 Z " fill="#AAAAA9" transform="translate(291,419)"/>
</svg>
